<mxfile host="app.diagrams.net" modified="2023-05-22T13:41:38.637Z" agent="Mozilla/5.0 (Windows NT 10.0; Win64; x64; rv:109.0) Gecko/20100101 Firefox/111.0" etag="qnkXsZRWE8jMh1kq9bnh" version="21.3.2" type="github">
  <diagram name="第 1 页" id="oPCSwoOenf8TTcg8J0vJ">
    <mxGraphModel dx="1450" dy="596" grid="0" gridSize="10" guides="1" tooltips="1" connect="1" arrows="1" fold="1" page="0" pageScale="1" pageWidth="1169" pageHeight="827" math="0" shadow="0">
      <root>
        <mxCell id="0" />
        <mxCell id="1" parent="0" />
        <mxCell id="5geVobr9w2sut3lOAOPp-121" value="" style="shape=table;startSize=0;container=1;collapsible=0;childLayout=tableLayout;sketch=1;hachureGap=4;jiggle=2;curveFitting=1;fontFamily=Verdana;fontSize=16;fillColor=#dae8fc;strokeColor=#6c8ebf;" vertex="1" parent="1">
          <mxGeometry x="-80" y="70" width="90" height="220" as="geometry" />
        </mxCell>
        <mxCell id="5geVobr9w2sut3lOAOPp-122" value="" style="shape=tableRow;horizontal=0;startSize=0;swimlaneHead=0;swimlaneBody=0;strokeColor=#6c8ebf;top=0;left=0;bottom=0;right=0;collapsible=0;dropTarget=0;fillColor=#dae8fc;points=[[0,0.5],[1,0.5]];portConstraint=eastwest;sketch=1;hachureGap=4;jiggle=2;curveFitting=1;fontFamily=Verdana;fontSize=16;" vertex="1" parent="5geVobr9w2sut3lOAOPp-121">
          <mxGeometry width="90" height="55" as="geometry" />
        </mxCell>
        <mxCell id="5geVobr9w2sut3lOAOPp-123" value="&lt;div&gt;sdshdr&lt;/div&gt;" style="shape=partialRectangle;html=1;whiteSpace=wrap;connectable=0;strokeColor=#6c8ebf;overflow=hidden;fillColor=#dae8fc;top=0;left=0;bottom=0;right=0;pointerEvents=1;sketch=1;hachureGap=4;jiggle=2;curveFitting=1;fontFamily=Verdana;fontSize=16;" vertex="1" parent="5geVobr9w2sut3lOAOPp-122">
          <mxGeometry width="90" height="55" as="geometry">
            <mxRectangle width="90" height="55" as="alternateBounds" />
          </mxGeometry>
        </mxCell>
        <mxCell id="5geVobr9w2sut3lOAOPp-124" value="" style="shape=tableRow;horizontal=0;startSize=0;swimlaneHead=0;swimlaneBody=0;strokeColor=#6c8ebf;top=0;left=0;bottom=0;right=0;collapsible=0;dropTarget=0;fillColor=#dae8fc;points=[[0,0.5],[1,0.5]];portConstraint=eastwest;sketch=1;hachureGap=4;jiggle=2;curveFitting=1;fontFamily=Verdana;fontSize=16;" vertex="1" parent="5geVobr9w2sut3lOAOPp-121">
          <mxGeometry y="55" width="90" height="55" as="geometry" />
        </mxCell>
        <mxCell id="5geVobr9w2sut3lOAOPp-125" value="&lt;div&gt;len&lt;/div&gt;&lt;div&gt;5&lt;br&gt;&lt;/div&gt;" style="shape=partialRectangle;html=1;whiteSpace=wrap;connectable=0;strokeColor=#6c8ebf;overflow=hidden;fillColor=#dae8fc;top=0;left=0;bottom=0;right=0;pointerEvents=1;sketch=1;hachureGap=4;jiggle=2;curveFitting=1;fontFamily=Verdana;fontSize=16;" vertex="1" parent="5geVobr9w2sut3lOAOPp-124">
          <mxGeometry width="90" height="55" as="geometry">
            <mxRectangle width="90" height="55" as="alternateBounds" />
          </mxGeometry>
        </mxCell>
        <mxCell id="5geVobr9w2sut3lOAOPp-126" value="" style="shape=tableRow;horizontal=0;startSize=0;swimlaneHead=0;swimlaneBody=0;strokeColor=#6c8ebf;top=0;left=0;bottom=0;right=0;collapsible=0;dropTarget=0;fillColor=#dae8fc;points=[[0,0.5],[1,0.5]];portConstraint=eastwest;sketch=1;hachureGap=4;jiggle=2;curveFitting=1;fontFamily=Verdana;fontSize=16;" vertex="1" parent="5geVobr9w2sut3lOAOPp-121">
          <mxGeometry y="110" width="90" height="55" as="geometry" />
        </mxCell>
        <mxCell id="5geVobr9w2sut3lOAOPp-127" value="&lt;div&gt;free&lt;/div&gt;6" style="shape=partialRectangle;html=1;whiteSpace=wrap;connectable=0;strokeColor=#6c8ebf;overflow=hidden;fillColor=#dae8fc;top=0;left=0;bottom=0;right=0;pointerEvents=1;sketch=1;hachureGap=4;jiggle=2;curveFitting=1;fontFamily=Verdana;fontSize=16;" vertex="1" parent="5geVobr9w2sut3lOAOPp-126">
          <mxGeometry width="90" height="55" as="geometry">
            <mxRectangle width="90" height="55" as="alternateBounds" />
          </mxGeometry>
        </mxCell>
        <mxCell id="5geVobr9w2sut3lOAOPp-128" value="" style="shape=tableRow;horizontal=0;startSize=0;swimlaneHead=0;swimlaneBody=0;strokeColor=#6c8ebf;top=0;left=0;bottom=0;right=0;collapsible=0;dropTarget=0;fillColor=#dae8fc;points=[[0,0.5],[1,0.5]];portConstraint=eastwest;sketch=1;hachureGap=4;jiggle=2;curveFitting=1;fontFamily=Verdana;fontSize=16;" vertex="1" parent="5geVobr9w2sut3lOAOPp-121">
          <mxGeometry y="165" width="90" height="55" as="geometry" />
        </mxCell>
        <mxCell id="5geVobr9w2sut3lOAOPp-129" value="buf[]" style="shape=partialRectangle;html=1;whiteSpace=wrap;connectable=0;strokeColor=#6c8ebf;overflow=hidden;fillColor=#dae8fc;top=0;left=0;bottom=0;right=0;pointerEvents=1;sketch=1;hachureGap=4;jiggle=2;curveFitting=1;fontFamily=Verdana;fontSize=16;" vertex="1" parent="5geVobr9w2sut3lOAOPp-128">
          <mxGeometry width="90" height="55" as="geometry">
            <mxRectangle width="90" height="55" as="alternateBounds" />
          </mxGeometry>
        </mxCell>
        <mxCell id="5geVobr9w2sut3lOAOPp-176" style="edgeStyle=none;shape=connector;rounded=0;sketch=1;hachureGap=4;jiggle=2;curveFitting=1;orthogonalLoop=1;jettySize=auto;html=1;exitX=1;exitY=0.5;exitDx=0;exitDy=0;labelBackgroundColor=default;strokeColor=#6c8ebf;fontFamily=Architects Daughter;fontSource=https%3A%2F%2Ffonts.googleapis.com%2Fcss%3Ffamily%3DArchitects%2BDaughter;fontSize=16;fontColor=default;endArrow=classic;startSize=0;fillColor=#dae8fc;" edge="1" parent="5geVobr9w2sut3lOAOPp-121" source="5geVobr9w2sut3lOAOPp-124" target="5geVobr9w2sut3lOAOPp-124">
          <mxGeometry relative="1" as="geometry" />
        </mxCell>
        <mxCell id="5geVobr9w2sut3lOAOPp-140" value="" style="shape=table;startSize=0;container=1;collapsible=0;childLayout=tableLayout;sketch=1;hachureGap=4;jiggle=2;curveFitting=1;fontFamily=Verdana;fontSize=16;fillColor=#dae8fc;strokeColor=#6c8ebf;" vertex="1" parent="1">
          <mxGeometry x="90" y="235" width="300" height="55" as="geometry" />
        </mxCell>
        <mxCell id="5geVobr9w2sut3lOAOPp-141" value="" style="shape=tableRow;horizontal=0;startSize=0;swimlaneHead=0;swimlaneBody=0;strokeColor=#6c8ebf;top=0;left=0;bottom=0;right=0;collapsible=0;dropTarget=0;fillColor=#dae8fc;points=[[0,0.5],[1,0.5]];portConstraint=eastwest;sketch=1;hachureGap=4;jiggle=2;curveFitting=1;fontFamily=Verdana;fontSize=16;" vertex="1" parent="5geVobr9w2sut3lOAOPp-140">
          <mxGeometry width="300" height="55" as="geometry" />
        </mxCell>
        <mxCell id="5geVobr9w2sut3lOAOPp-142" value="R" style="shape=partialRectangle;html=1;whiteSpace=wrap;connectable=0;strokeColor=#6c8ebf;overflow=hidden;fillColor=#dae8fc;top=0;left=0;bottom=0;right=0;pointerEvents=1;sketch=1;hachureGap=4;jiggle=2;curveFitting=1;fontFamily=Verdana;fontSize=16;" vertex="1" parent="5geVobr9w2sut3lOAOPp-141">
          <mxGeometry width="58" height="55" as="geometry">
            <mxRectangle width="58" height="55" as="alternateBounds" />
          </mxGeometry>
        </mxCell>
        <mxCell id="5geVobr9w2sut3lOAOPp-143" value="e" style="shape=partialRectangle;html=1;whiteSpace=wrap;connectable=0;strokeColor=#6c8ebf;overflow=hidden;fillColor=#dae8fc;top=0;left=0;bottom=0;right=0;pointerEvents=1;sketch=1;hachureGap=4;jiggle=2;curveFitting=1;fontFamily=Verdana;fontSize=16;" vertex="1" parent="5geVobr9w2sut3lOAOPp-141">
          <mxGeometry x="58" width="57" height="55" as="geometry">
            <mxRectangle width="57" height="55" as="alternateBounds" />
          </mxGeometry>
        </mxCell>
        <mxCell id="5geVobr9w2sut3lOAOPp-144" value="d" style="shape=partialRectangle;html=1;whiteSpace=wrap;connectable=0;strokeColor=#6c8ebf;overflow=hidden;fillColor=#dae8fc;top=0;left=0;bottom=0;right=0;pointerEvents=1;sketch=1;hachureGap=4;jiggle=2;curveFitting=1;fontFamily=Verdana;fontSize=16;" vertex="1" parent="5geVobr9w2sut3lOAOPp-141">
          <mxGeometry x="115" width="60" height="55" as="geometry">
            <mxRectangle width="60" height="55" as="alternateBounds" />
          </mxGeometry>
        </mxCell>
        <mxCell id="5geVobr9w2sut3lOAOPp-145" value="i" style="shape=partialRectangle;html=1;whiteSpace=wrap;connectable=0;strokeColor=#6c8ebf;overflow=hidden;fillColor=#dae8fc;top=0;left=0;bottom=0;right=0;pointerEvents=1;sketch=1;hachureGap=4;jiggle=2;curveFitting=1;fontFamily=Verdana;fontSize=16;" vertex="1" parent="5geVobr9w2sut3lOAOPp-141">
          <mxGeometry x="175" width="65" height="55" as="geometry">
            <mxRectangle width="65" height="55" as="alternateBounds" />
          </mxGeometry>
        </mxCell>
        <mxCell id="5geVobr9w2sut3lOAOPp-146" value="s" style="shape=partialRectangle;html=1;whiteSpace=wrap;connectable=0;strokeColor=#6c8ebf;overflow=hidden;fillColor=#dae8fc;top=0;left=0;bottom=0;right=0;pointerEvents=1;sketch=1;hachureGap=4;jiggle=2;curveFitting=1;fontFamily=Verdana;fontSize=16;" vertex="1" parent="5geVobr9w2sut3lOAOPp-141">
          <mxGeometry x="240" width="60" height="55" as="geometry">
            <mxRectangle width="60" height="55" as="alternateBounds" />
          </mxGeometry>
        </mxCell>
        <mxCell id="5geVobr9w2sut3lOAOPp-148" style="edgeStyle=none;shape=connector;rounded=0;sketch=1;hachureGap=4;jiggle=2;curveFitting=1;orthogonalLoop=1;jettySize=auto;html=1;exitX=1;exitY=0.5;exitDx=0;exitDy=0;entryX=0;entryY=0.5;entryDx=0;entryDy=0;labelBackgroundColor=default;strokeColor=#6c8ebf;fontFamily=Verdana;fontSize=16;fontColor=default;endArrow=classic;startSize=0;fillColor=#dae8fc;" edge="1" parent="1" source="5geVobr9w2sut3lOAOPp-128" target="5geVobr9w2sut3lOAOPp-140">
          <mxGeometry relative="1" as="geometry" />
        </mxCell>
        <mxCell id="5geVobr9w2sut3lOAOPp-154" value="" style="shape=table;startSize=0;container=1;collapsible=0;childLayout=tableLayout;sketch=1;hachureGap=4;jiggle=2;curveFitting=1;fontFamily=Architects Daughter;fontSource=https%3A%2F%2Ffonts.googleapis.com%2Fcss%3Ffamily%3DArchitects%2BDaughter;fontSize=16;fillColor=#dae8fc;strokeColor=#6c8ebf;" vertex="1" parent="1">
          <mxGeometry x="390" y="235" width="420" height="55" as="geometry" />
        </mxCell>
        <mxCell id="5geVobr9w2sut3lOAOPp-155" value="" style="shape=tableRow;horizontal=0;startSize=0;swimlaneHead=0;swimlaneBody=0;strokeColor=#6c8ebf;top=0;left=0;bottom=0;right=0;collapsible=0;dropTarget=0;fillColor=#dae8fc;points=[[0,0.5],[1,0.5]];portConstraint=eastwest;sketch=1;hachureGap=4;jiggle=2;curveFitting=1;fontFamily=Architects Daughter;fontSource=https%3A%2F%2Ffonts.googleapis.com%2Fcss%3Ffamily%3DArchitects%2BDaughter;fontSize=16;" vertex="1" parent="5geVobr9w2sut3lOAOPp-154">
          <mxGeometry width="420" height="55" as="geometry" />
        </mxCell>
        <mxCell id="5geVobr9w2sut3lOAOPp-156" value="\0" style="shape=partialRectangle;html=1;whiteSpace=wrap;connectable=0;strokeColor=#6c8ebf;overflow=hidden;fillColor=#dae8fc;top=0;left=0;bottom=0;right=0;pointerEvents=1;sketch=1;hachureGap=4;jiggle=2;curveFitting=1;fontFamily=Verdana;fontSize=16;" vertex="1" parent="5geVobr9w2sut3lOAOPp-155">
          <mxGeometry width="60" height="55" as="geometry">
            <mxRectangle width="60" height="55" as="alternateBounds" />
          </mxGeometry>
        </mxCell>
        <mxCell id="5geVobr9w2sut3lOAOPp-157" value="" style="shape=partialRectangle;html=1;whiteSpace=wrap;connectable=0;strokeColor=#6c8ebf;overflow=hidden;fillColor=#dae8fc;top=0;left=0;bottom=0;right=0;pointerEvents=1;sketch=1;hachureGap=4;jiggle=2;curveFitting=1;fontFamily=Verdana;fontSize=16;" vertex="1" parent="5geVobr9w2sut3lOAOPp-155">
          <mxGeometry x="60" width="60" height="55" as="geometry">
            <mxRectangle width="60" height="55" as="alternateBounds" />
          </mxGeometry>
        </mxCell>
        <mxCell id="5geVobr9w2sut3lOAOPp-158" value="" style="shape=partialRectangle;html=1;whiteSpace=wrap;connectable=0;strokeColor=#6c8ebf;overflow=hidden;fillColor=#dae8fc;top=0;left=0;bottom=0;right=0;pointerEvents=1;sketch=1;hachureGap=4;jiggle=2;curveFitting=1;fontFamily=Verdana;fontSize=16;" vertex="1" parent="5geVobr9w2sut3lOAOPp-155">
          <mxGeometry x="120" width="60" height="55" as="geometry">
            <mxRectangle width="60" height="55" as="alternateBounds" />
          </mxGeometry>
        </mxCell>
        <mxCell id="5geVobr9w2sut3lOAOPp-159" value="" style="shape=partialRectangle;html=1;whiteSpace=wrap;connectable=0;strokeColor=#6c8ebf;overflow=hidden;fillColor=#dae8fc;top=0;left=0;bottom=0;right=0;pointerEvents=1;sketch=1;hachureGap=4;jiggle=2;curveFitting=1;fontFamily=Verdana;fontSize=16;" vertex="1" parent="5geVobr9w2sut3lOAOPp-155">
          <mxGeometry x="180" width="60" height="55" as="geometry">
            <mxRectangle width="60" height="55" as="alternateBounds" />
          </mxGeometry>
        </mxCell>
        <mxCell id="5geVobr9w2sut3lOAOPp-160" value="" style="shape=partialRectangle;html=1;whiteSpace=wrap;connectable=0;strokeColor=#6c8ebf;overflow=hidden;fillColor=#dae8fc;top=0;left=0;bottom=0;right=0;pointerEvents=1;sketch=1;hachureGap=4;jiggle=2;curveFitting=1;fontFamily=Verdana;fontSize=16;" vertex="1" parent="5geVobr9w2sut3lOAOPp-155">
          <mxGeometry x="240" width="60" height="55" as="geometry">
            <mxRectangle width="60" height="55" as="alternateBounds" />
          </mxGeometry>
        </mxCell>
        <mxCell id="5geVobr9w2sut3lOAOPp-161" value="" style="shape=partialRectangle;html=1;whiteSpace=wrap;connectable=0;strokeColor=#6c8ebf;overflow=hidden;fillColor=#dae8fc;top=0;left=0;bottom=0;right=0;pointerEvents=1;sketch=1;hachureGap=4;jiggle=2;curveFitting=1;fontFamily=Architects Daughter;fontSource=https%3A%2F%2Ffonts.googleapis.com%2Fcss%3Ffamily%3DArchitects%2BDaughter;fontSize=16;" vertex="1" parent="5geVobr9w2sut3lOAOPp-155">
          <mxGeometry x="300" width="60" height="55" as="geometry">
            <mxRectangle width="60" height="55" as="alternateBounds" />
          </mxGeometry>
        </mxCell>
        <mxCell id="5geVobr9w2sut3lOAOPp-162" value="" style="shape=partialRectangle;html=1;whiteSpace=wrap;connectable=0;strokeColor=#6c8ebf;overflow=hidden;fillColor=#dae8fc;top=0;left=0;bottom=0;right=0;pointerEvents=1;sketch=1;hachureGap=4;jiggle=2;curveFitting=1;fontFamily=Architects Daughter;fontSource=https%3A%2F%2Ffonts.googleapis.com%2Fcss%3Ffamily%3DArchitects%2BDaughter;fontSize=16;" vertex="1" parent="5geVobr9w2sut3lOAOPp-155">
          <mxGeometry x="360" width="60" height="55" as="geometry">
            <mxRectangle width="60" height="55" as="alternateBounds" />
          </mxGeometry>
        </mxCell>
        <mxCell id="5geVobr9w2sut3lOAOPp-173" value="已使用的长度" style="text;html=1;align=center;verticalAlign=middle;whiteSpace=wrap;rounded=0;fontSize=14;fontFamily=Verdana;" vertex="1" parent="1">
          <mxGeometry x="17.5" y="132" width="187" height="41" as="geometry" />
        </mxCell>
        <mxCell id="5geVobr9w2sut3lOAOPp-175" value="剩余空间大小" style="text;html=1;align=center;verticalAlign=middle;whiteSpace=wrap;rounded=0;fontSize=14;fontFamily=Verdana;" vertex="1" parent="1">
          <mxGeometry x="34" y="184" width="154" height="32" as="geometry" />
        </mxCell>
        <mxCell id="5geVobr9w2sut3lOAOPp-179" value="" style="edgeStyle=none;orthogonalLoop=1;jettySize=auto;html=1;rounded=0;labelBackgroundColor=default;sketch=1;hachureGap=4;jiggle=2;curveFitting=1;strokeColor=#6c8ebf;fontFamily=Architects Daughter;fontSource=https%3A%2F%2Ffonts.googleapis.com%2Fcss%3Ffamily%3DArchitects%2BDaughter;fontSize=16;fontColor=default;endArrow=classic;startSize=0;shape=connector;exitX=1;exitY=0.5;exitDx=0;exitDy=0;verticalAlign=top;align=center;fillColor=#dae8fc;" edge="1" parent="1" source="5geVobr9w2sut3lOAOPp-124">
          <mxGeometry width="120" relative="1" as="geometry">
            <mxPoint x="25" y="152" as="sourcePoint" />
            <mxPoint x="64" y="156" as="targetPoint" />
            <Array as="points" />
          </mxGeometry>
        </mxCell>
        <mxCell id="5geVobr9w2sut3lOAOPp-180" value="" style="edgeStyle=none;orthogonalLoop=1;jettySize=auto;html=1;rounded=0;labelBackgroundColor=default;sketch=1;hachureGap=4;jiggle=2;curveFitting=1;strokeColor=#6c8ebf;fontFamily=Architects Daughter;fontSource=https%3A%2F%2Ffonts.googleapis.com%2Fcss%3Ffamily%3DArchitects%2BDaughter;fontSize=16;fontColor=default;endArrow=classic;startSize=0;shape=connector;fillColor=#dae8fc;" edge="1" parent="1">
          <mxGeometry width="120" relative="1" as="geometry">
            <mxPoint x="8" y="204" as="sourcePoint" />
            <mxPoint x="66" y="201" as="targetPoint" />
            <Array as="points" />
          </mxGeometry>
        </mxCell>
      </root>
    </mxGraphModel>
  </diagram>
</mxfile>
